<svg width="130" height="129" viewBox="0 0 130 129" fill="none" xmlns="http://www.w3.org/2000/svg">
<path d="M16.25 59.1285V84.9311C16.25 90.952 16.25 93.9609 17.4308 96.2606C18.4694 98.2834 20.1255 99.9297 22.1639 100.96C24.479 102.131 27.5112 102.131 33.5666 102.131H96.4334C102.489 102.131 105.517 102.131 107.832 100.96C109.87 99.9297 111.532 98.2834 112.57 96.2606C113.75 93.9631 113.75 90.9584 113.75 84.9493V59.1285M16.25 59.1285V48.3779M16.25 59.1285H113.75M16.25 48.3779V44.0787C16.25 38.0577 16.25 35.045 17.4308 32.7453C18.4694 30.7225 20.1255 29.079 22.1639 28.0483C24.4813 26.8766 27.5172 26.8766 33.5844 26.8766H96.4177C102.485 26.8766 105.514 26.8766 107.832 28.0483C109.87 29.079 111.532 30.7225 112.57 32.7453C113.75 35.0428 113.75 38.0518 113.75 44.061V48.3779M16.25 48.3779H113.75M37.9167 80.6298H59.5833M113.75 59.1285V48.3779" stroke="#79FFFE" stroke-width="2" stroke-linecap="round" stroke-linejoin="round"/>
</svg>
